<?xml version="1.0" encoding="UTF-8" standalone="no"?>
<svg
   xmlns:dc="http://purl.org/dc/elements/1.1/"
   xmlns:cc="http://creativecommons.org/ns#"
   xmlns:rdf="http://www.w3.org/1999/02/22-rdf-syntax-ns#"
   xmlns:svg="http://www.w3.org/2000/svg"
   xmlns="http://www.w3.org/2000/svg"
   xmlns:sodipodi="http://sodipodi.sourceforge.net/DTD/sodipodi-0.dtd"
   xmlns:inkscape="http://www.inkscape.org/namespaces/inkscape"
   width="11in"
   height="8in"
   viewBox="0 0 279.4 203.2"
   version="1.1"
   preserveAspectRatio="xMidYMid meet"
   id="svg849"
   sodipodi:docname="Clock Box v1.svg"
   inkscape:version="0.92.2 (5c3e80d, 2017-08-06)">
  <metadata
     id="metadata855">
    <rdf:RDF>
      <cc:Work
         rdf:about="">
        <dc:format>image/svg+xml</dc:format>
        <dc:type
           rdf:resource="http://purl.org/dc/dcmitype/StillImage" />
        <dc:title></dc:title>
      </cc:Work>
    </rdf:RDF>
  </metadata>
  <defs
     id="defs853" />
  <sodipodi:namedview
     pagecolor="#ffffff"
     bordercolor="#666666"
     borderopacity="1"
     objecttolerance="10"
     gridtolerance="10"
     guidetolerance="10"
     inkscape:pageopacity="0"
     inkscape:pageshadow="2"
     inkscape:window-width="1827"
     inkscape:window-height="888"
     id="namedview851"
     showgrid="false"
     units="in"
     inkscape:measure-start="59.6116,222.31"
     inkscape:measure-end="78.9381,222.31"
     inkscape:zoom="0.42121678"
     inkscape:cx="787.80959"
     inkscape:cy="281.66317"
     inkscape:window-x="298"
     inkscape:window-y="23"
     inkscape:window-maximized="0"
     inkscape:current-layer="svgGroup" />
  <g
     id="svgGroup"
     font-size="9pt"
     style="font-size:12px;fill:none;fill-rule:evenodd;stroke:#000000;stroke-width:1.04499996;stroke-linecap:round;stroke-miterlimit:4;stroke-dasharray:none"
     transform="translate(7.106599,6.8802011)">
    <path
       d="m 0,89 v 8.875 h 3 v 9.75 H 0 v 9.75 h 3 v 9.75 H 0 v 9.75 h 3 v 9.75 H 0 v 9.75 h 3 v 9.75 H 0 V 175 h 14.125 v -3 h 9.75 v 3 h 9.75 v -3 h 9.75 v 3 h 9.75 v -3 h 9.75 v 3 h 9.75 v -3 h 9.75 v 3 h 9.75 v -3 h 9.75 v 3 h 9.75 4.375 v -8.875 h -3 v -9.75 h 3 v -9.75 h -3 v -9.75 h 3 v -9.75 h -3 v -9.75 h 3 v -9.75 h -3 v -9.75 h 3 V 89 h -14.125 v 3 h -9.75 v -3 h -9.75 v 3 h -9.75 v -3 h -9.75 v 3 h -9.75 v -3 h -9.75 v 3 h -9.75 v -3 h -9.75 v 3 h -9.75 v -3 h -9.75 z"
       id="front_outsideCutPath"
       style="vector-effect:non-scaling-stroke;stroke:#ff0000;stroke-width:1.04499996;stroke-miterlimit:4;stroke-dasharray:none"
       inkscape:connector-curvature="0" />
    <path
       d="m 122,89 v 8.875 h -3 v 9.75 h 3 v 9.75 h -3 v 9.75 h 3 v 9.75 h -3 v 9.75 h 3 v 9.75 h -3 v 9.75 h 3 V 175 h 13.125 v -3 h 9.75 v 3 h 9.75 v -3 h 9.75 v 3 h 9.75 v -3 h 9.75 v 3 h 9.75 3.375 v -8.875 h 3 v -9.75 h -3 v -9.75 h 3 v -9.75 h -3 v -9.75 h 3 v -9.75 h -3 v -9.75 h 3 v -9.75 h -3 V 89 h -13.125 v 3 h -9.75 v -3 h -9.75 v 3 h -9.75 v -3 h -9.75 v 3 h -9.75 v -3 h -9.75 z"
       id="left_outsideCutPath"
       style="vector-effect:non-scaling-stroke;stroke:#ff0000;stroke-width:1.04499996;stroke-miterlimit:4;stroke-dasharray:none"
       inkscape:connector-curvature="0" />
    <path
       d="m 165.263,129.449 v 1.02 h -2.207 v 7.649 h -1.313 v -7.649 h -1.551 v -0.593 l 1.551,-0.475 v -0.482 a 5.322,5.322 0 0 1 0.124,-1.206 q 0.384,-1.645 1.956,-1.93 a 3.991,3.991 0 0 1 0.712,-0.06 4.228,4.228 0 0 1 0.598,0.046 q 0.291,0.042 0.615,0.121 a 8.5,8.5 0 0 1 0.4,0.11 l -0.34,1.052 a 6.376,6.376 0 0 0 -0.496,-0.14 q -0.25,-0.059 -0.471,-0.085 a 2.824,2.824 0 0 0 -0.33,-0.02 q -0.743,0 -1.099,0.494 -0.323,0.449 -0.353,1.389 a 6.2,6.2 0 0 0 -0.003,0.197 v 0.562 z m -6.147,3.741 v 0.831 h -5.972 a 5.27,5.27 0 0 0 0.093,0.882 q 0.175,0.892 0.678,1.436 a 2.386,2.386 0 0 0 1.253,0.705 3.615,3.615 0 0 0 0.808,0.086 6.935,6.935 0 0 0 2.597,-0.515 7.947,7.947 0 0 0 0.172,-0.071 v 1.171 q -0.697,0.301 -1.317,0.431 a 5.512,5.512 0 0 1 -0.547,0.085 q -0.27,0.028 -0.574,0.039 a 10.698,10.698 0 0 1 -0.378,0.007 5.103,5.103 0 0 1 -1.277,-0.152 3.613,3.613 0 0 1 -1.757,-1.019 3.864,3.864 0 0 1 -0.924,-1.698 q -0.161,-0.601 -0.184,-1.316 a 7.501,7.501 0 0 1 -0.003,-0.237 6.895,6.895 0 0 1 0.127,-1.368 q 0.236,-1.162 0.905,-1.962 a 3.365,3.365 0 0 1 2.452,-1.224 4.642,4.642 0 0 1 0.32,-0.01 4,4 0 0 1 1.127,0.15 3.044,3.044 0 0 1 1.452,0.921 3.671,3.671 0 0 1 0.832,1.678 5.344,5.344 0 0 1 0.117,1.15 z m 11.715,3.845 v 1.004 a 1.292,1.292 0 0 1 -0.153,0.061 q -0.163,0.054 -0.397,0.096 a 4.91,4.91 0 0 1 -0.079,0.013 q -0.387,0.063 -0.703,0.067 a 3.367,3.367 0 0 1 -0.044,10e-4 q -2.006,0 -2.412,-1.686 a 4.127,4.127 0 0 1 -0.103,-0.964 v -5.158 h -1.242 v -0.633 l 1.242,-0.545 0.553,-1.851 h 0.76 v 2.009 h 2.515 v 1.02 h -2.515 v 5.102 a 2.644,2.644 0 0 0 0.038,0.465 q 0.045,0.254 0.145,0.456 a 1.274,1.274 0 0 0 0.188,0.282 1.22,1.22 0 0 0 0.75,0.399 1.755,1.755 0 0 0 0.271,0.02 4.312,4.312 0 0 0 0.632,-0.045 3.976,3.976 0 0 0 0.04,-0.007 7.103,7.103 0 0 0 0.19,-0.032 q 0.194,-0.036 0.324,-0.074 z M 149.482,125.81 v 12.308 h -1.313 V 125.81 Z m 3.694,7.143 h 4.532 a 4.475,4.475 0 0 0 -0.054,-0.719 q -0.119,-0.729 -0.499,-1.183 a 1.799,1.799 0 0 0 -1.084,-0.617 2.699,2.699 0 0 0 -0.498,-0.044 2.588,2.588 0 0 0 -0.748,0.103 2,2 0 0 0 -0.917,0.577 q -0.562,0.616 -0.706,1.659 a 4.961,4.961 0 0 0 -0.026,0.224 z"
       id="left_labelLayer"
       style="vector-effect:non-scaling-stroke;fill:#777777;stroke:#777777;stroke-width:1.04499996;stroke-miterlimit:4;stroke-dasharray:none"
       inkscape:connector-curvature="0" />
    <path
       d="m 0,0 v 8.875 h 3 v 9.75 H 0 v 9.75 h 3 v 9.75 H 0 v 9.75 h 3 v 9.75 H 0 v 9.75 h 3 v 9.75 H 0 V 86 h 14.125 v -3 h 9.75 v 3 h 9.75 v -3 h 9.75 v 3 h 9.75 v -3 h 9.75 v 3 h 9.75 v -3 h 9.75 v 3 h 9.75 v -3 h 9.75 v 3 h 9.75 4.375 v -8.875 h -3 v -9.75 h 3 v -9.75 h -3 v -9.75 h 3 v -9.75 h -3 v -9.75 h 3 v -9.75 h -3 v -9.75 h 3 V 0 h -14.125 v 3 h -9.75 V 0 h -9.75 v 3 h -9.75 V 0 h -9.75 v 3 h -9.75 V 0 h -9.75 v 3 h -9.75 V 0 h -9.75 v 3 h -9.75 V 0 h -9.75 z"
       id="back_outsideCutPath"
       style="vector-effect:non-scaling-stroke;stroke:#ff0000;stroke-width:1.04499996;stroke-miterlimit:4;stroke-dasharray:none"
       inkscape:connector-curvature="0" />
    <path
       d="m 69.775,44.738 h 0.067 q 0.361,-0.512 1.1,-1.343 l 2.973,-3.15 h 1.655 l -3.729,3.922 3.989,5.283 h -1.688 l -3.25,-4.35 -1.05,0.907 V 49.45 H 68.464 V 36.382 h 1.378 v 6.929 a 9.29,9.29 0 0 1 -0.004,0.262 q -0.013,0.441 -0.063,1.165 z M 41.564,48.266 H 41.463 L 41.17,49.45 h -1 V 36.382 h 1.394 v 3.175 a 29.067,29.067 0 0 1 -0.016,0.982 q -0.015,0.464 -0.047,0.877 a 17.358,17.358 0 0 1 -0.004,0.055 h 0.067 a 3.17,3.17 0 0 1 2.314,-1.343 4.761,4.761 0 0 1 0.575,-0.034 4.261,4.261 0 0 1 1.2,0.16 3.19,3.19 0 0 1 1.618,1.079 4.108,4.108 0 0 1 0.72,1.387 q 0.177,0.572 0.244,1.257 a 8.949,8.949 0 0 1 0.04,0.862 8.174,8.174 0 0 1 -0.109,1.376 q -0.125,0.732 -0.395,1.32 a 3.919,3.919 0 0 1 -0.508,0.827 3.3,3.3 0 0 1 -2.346,1.234 4.728,4.728 0 0 1 -0.464,0.022 4.229,4.229 0 0 1 -1.062,-0.13 3.679,3.679 0 0 1 -0.58,-0.202 3.088,3.088 0 0 1 -1.247,-1.02 z m 15.84,1.184 h -1.033 l -0.277,-1.31 h -0.068 a 5.779,5.779 0 0 1 -0.467,0.523 q -0.252,0.247 -0.503,0.42 a 2.569,2.569 0 0 1 -0.403,0.228 3.215,3.215 0 0 1 -0.664,0.21 q -0.322,0.067 -0.695,0.087 a 6.274,6.274 0 0 1 -0.35,0.01 4.278,4.278 0 0 1 -0.87,-0.083 q -0.766,-0.159 -1.276,-0.623 a 2.292,2.292 0 0 1 -0.691,-1.208 3.508,3.508 0 0 1 -0.086,-0.799 2.412,2.412 0 0 1 1.373,-2.277 q 1.101,-0.586 3.087,-0.645 l 1.562,-0.051 v -0.571 a 4.004,4.004 0 0 0 -0.039,-0.579 q -0.043,-0.296 -0.135,-0.534 a 1.556,1.556 0 0 0 -0.292,-0.487 1.415,1.415 0 0 0 -0.58,-0.378 q -0.38,-0.138 -0.911,-0.138 a 4.539,4.539 0 0 0 -1.044,0.13 q -0.48,0.113 -1.001,0.326 a 9.337,9.337 0 0 0 -0.558,0.249 l -0.429,-1.067 a 6.428,6.428 0 0 1 1.241,-0.509 7.317,7.317 0 0 1 0.25,-0.07 6.456,6.456 0 0 1 1.625,-0.21 5.888,5.888 0 0 1 0.897,0.064 q 0.983,0.152 1.543,0.667 0.622,0.573 0.757,1.688 a 5.486,5.486 0 0 1 0.037,0.655 z m 9.011,-8.894 -0.428,1.184 a 6.202,6.202 0 0 0 -0.673,-0.224 7.407,7.407 0 0 0 -0.335,-0.082 5.759,5.759 0 0 0 -0.438,-0.081 q -0.214,-0.031 -0.404,-0.039 a 3.091,3.091 0 0 0 -0.124,-0.002 q -2.491,0 -2.77,2.823 a 7.703,7.703 0 0 0 -0.035,0.755 q 0,1.696 0.685,2.603 a 2.214,2.214 0 0 0 1.434,0.857 3.373,3.373 0 0 0 0.594,0.05 5.836,5.836 0 0 0 1.61,-0.234 7.206,7.206 0 0 0 0.75,-0.261 v 1.234 q -0.793,0.411 -1.94,0.469 a 7.645,7.645 0 0 1 -0.387,0.01 5.21,5.21 0 0 1 -1.267,-0.146 3.533,3.533 0 0 1 -1.827,-1.084 4.033,4.033 0 0 1 -0.839,-1.541 q -0.185,-0.611 -0.237,-1.346 a 8.43,8.43 0 0 1 -0.02,-0.595 7.692,7.692 0 0 1 0.119,-1.398 q 0.245,-1.323 0.993,-2.171 a 3.61,3.61 0 0 1 1.977,-1.137 5.473,5.473 0 0 1 1.194,-0.123 q 0.663,0 1.327,0.143 0.656,0.141 1.033,0.332 a 2.054,2.054 0 0 1 0.008,0.004 z m -22.163,0.705 a 3.918,3.918 0 0 0 -0.759,0.069 q -0.432,0.085 -0.76,0.277 a 1.854,1.854 0 0 0 -0.539,0.473 2.387,2.387 0 0 0 -0.345,0.658 q -0.233,0.654 -0.275,1.647 a 10.741,10.741 0 0 0 -0.01,0.454 9.218,9.218 0 0 0 0.046,0.953 q 0.1,0.961 0.421,1.546 a 2.103,2.103 0 0 0 0.18,0.277 2.023,2.023 0 0 0 1.026,0.692 q 0.343,0.108 0.761,0.135 a 4.483,4.483 0 0 0 0.287,0.008 2.779,2.779 0 0 0 0.79,-0.105 2.005,2.005 0 0 0 1.125,-0.831 q 0.45,-0.669 0.579,-1.756 A 7.988,7.988 0 0 0 46.83,44.822 8.237,8.237 0 0 0 46.78,43.884 Q 46.653,42.777 46.2,42.143 a 2.033,2.033 0 0 0 -1.294,-0.819 3.224,3.224 0 0 0 -0.654,-0.063 z m 11.758,4.494 v -0.832 l -1.395,0.059 q -1.662,0.059 -2.397,0.516 a 1.488,1.488 0 0 0 -0.709,1.08 2.202,2.202 0 0 0 -0.026,0.344 1.992,1.992 0 0 0 0.049,0.457 q 0.083,0.351 0.305,0.593 a 1.242,1.242 0 0 0 0.104,0.101 q 0.395,0.34 1.063,0.387 a 3.136,3.136 0 0 0 0.217,0.007 3.838,3.838 0 0 0 0.829,-0.084 q 0.578,-0.128 1.004,-0.449 a 2.328,2.328 0 0 0 0.212,-0.181 2.335,2.335 0 0 0 0.652,-1.166 q 0.092,-0.381 0.092,-0.832 z"
       id="back_labelLayer"
       style="vector-effect:non-scaling-stroke;fill:#777777;stroke:#777777;stroke-width:1.04499996;stroke-miterlimit:4;stroke-dasharray:none"
       inkscape:connector-curvature="0" />
    <path
       d="m 122,0 v 8.875 h -3 v 9.75 h 3 v 9.75 h -3 v 9.75 h 3 v 9.75 h -3 v 9.75 h 3 v 9.75 h -3 v 9.75 h 3 V 86 h 13.125 v -3 h 9.75 v 3 h 9.75 v -3 h 9.75 v 3 h 9.75 v -3 h 9.75 v 3 h 9.75 3.375 v -8.875 h 3 v -9.75 h -3 v -9.75 h 3 v -9.75 h -3 v -9.75 h 3 v -9.75 h -3 v -9.75 h 3 v -9.75 h -3 V 0 h -13.125 v 3 h -9.75 V 0 h -9.75 v 3 h -9.75 V 0 h -9.75 v 3 h -9.75 V 0 h -9.75 z"
       id="right_outsideCutPath"
       style="vector-effect:non-scaling-stroke;stroke:#ff0000;stroke-width:1.04499996;stroke-miterlimit:4;stroke-dasharray:none"
       inkscape:connector-curvature="0" />
    <path
       d="M 169.574,47.208 H 168.26 V 41.6 a 3.712,3.712 0 0 0 -0.042,-0.582 q -0.101,-0.633 -0.44,-1 -0.483,-0.522 -1.511,-0.522 -1.368,0 -1.997,0.743 a 2.185,2.185 0 0 0 -0.371,0.657 q -0.224,0.602 -0.253,1.496 a 8.475,8.475 0 0 0 -0.005,0.284 v 4.532 h -1.313 V 34.9 h 1.313 v 3.726 q 0,0.672 -0.063,1.115 h 0.079 a 2.623,2.623 0 0 1 0.919,-0.885 3.205,3.205 0 0 1 0.184,-0.1 q 0.716,-0.36 1.634,-0.36 1.046,0 1.747,0.327 a 2.367,2.367 0 0 1 0.638,0.429 2.286,2.286 0 0 1 0.564,0.885 q 0.135,0.368 0.191,0.825 a 5.678,5.678 0 0 1 0.04,0.69 z M 157.55,38.539 h 2.998 v 0.83 l -1.606,0.19 a 2.134,2.134 0 0 1 0.185,0.275 q 0.081,0.142 0.155,0.312 a 4.048,4.048 0 0 1 0.056,0.137 2.526,2.526 0 0 1 0.149,0.603 3.244,3.244 0 0 1 0.025,0.405 3.01,3.01 0 0 1 -0.138,0.934 2.435,2.435 0 0 1 -0.732,1.099 2.912,2.912 0 0 1 -1.146,0.604 q -0.555,0.156 -1.243,0.156 a 4.22,4.22 0 0 1 -0.488,-0.028 3.564,3.564 0 0 1 -0.24,-0.036 q -0.838,0.443 -0.838,1.116 a 0.681,0.681 0 0 0 0.034,0.222 q 0.063,0.183 0.241,0.293 a 0.728,0.728 0 0 0 0.017,0.011 0.921,0.921 0 0 0 0.205,0.084 q 0.213,0.062 0.539,0.079 a 4.995,4.995 0 0 0 0.261,0.007 h 1.535 a 5.375,5.375 0 0 1 0.816,0.058 q 0.828,0.127 1.347,0.535 a 1.921,1.921 0 0 1 0.714,1.224 2.885,2.885 0 0 1 0.041,0.5 q 0,1.44 -1.155,2.196 a 3.938,3.938 0 0 1 -1.015,0.46 q -0.97,0.295 -2.354,0.295 a 7.357,7.357 0 0 1 -0.987,-0.062 q -1.002,-0.136 -1.635,-0.571 a 2.093,2.093 0 0 1 -0.675,-0.732 q -0.216,-0.401 -0.243,-0.908 a 2.773,2.773 0 0 1 -0.004,-0.148 2.008,2.008 0 0 1 0.506,-1.368 2.293,2.293 0 0 1 0.788,-0.574 3.25,3.25 0 0 1 0.636,-0.209 1.363,1.363 0 0 1 -0.529,-0.428 1.618,1.618 0 0 1 -0.029,-0.039 q -0.225,-0.316 -0.225,-0.735 a 1.502,1.502 0 0 1 0.076,-0.484 1.331,1.331 0 0 1 0.177,-0.347 q 0.191,-0.269 0.55,-0.524 a 4.125,4.125 0 0 1 0.249,-0.164 2.302,2.302 0 0 1 -1,-0.801 2.853,2.853 0 0 1 -0.096,-0.141 2.714,2.714 0 0 1 -0.416,-1.308 3.313,3.313 0 0 1 -0.007,-0.21 3.794,3.794 0 0 1 0.1,-0.897 2.496,2.496 0 0 1 0.755,-1.298 2.789,2.789 0 0 1 1.07,-0.591 q 0.425,-0.13 0.937,-0.166 a 5.799,5.799 0 0 1 0.413,-0.015 5.033,5.033 0 0 1 0.666,0.042 3.833,3.833 0 0 1 0.56,0.117 z m 18.708,7.585 v 1.005 a 1.292,1.292 0 0 1 -0.154,0.061 q -0.163,0.054 -0.397,0.096 a 4.91,4.91 0 0 1 -0.078,0.013 q -0.388,0.063 -0.703,0.067 a 3.367,3.367 0 0 1 -0.045,0 q -2.006,0 -2.412,-1.685 a 4.127,4.127 0 0 1 -0.103,-0.965 v -5.157 h -1.242 v -0.633 l 1.242,-0.546 0.554,-1.851 h 0.759 v 2.01 h 2.515 v 1.02 h -2.515 v 5.102 a 2.644,2.644 0 0 0 0.038,0.464 q 0.046,0.255 0.146,0.457 a 1.274,1.274 0 0 0 0.188,0.281 1.22,1.22 0 0 0 0.75,0.4 1.755,1.755 0 0 0 0.27,0.02 4.312,4.312 0 0 0 0.632,-0.046 3.976,3.976 0 0 0 0.041,-0.006 7.103,7.103 0 0 0 0.189,-0.032 q 0.194,-0.036 0.325,-0.075 z m -28.524,-7.649 -0.182,1.219 a 5.787,5.787 0 0 0 -0.416,-0.077 q -0.289,-0.042 -0.534,-0.042 a 2.275,2.275 0 0 0 -1.68,0.726 3.113,3.113 0 0 0 -0.119,0.128 2.999,2.999 0 0 0 -0.723,1.684 3.986,3.986 0 0 0 -0.025,0.444 v 4.651 h -1.313 v -8.669 h 1.084 l 0.15,1.605 h 0.064 a 4.434,4.434 0 0 1 0.495,-0.708 3.387,3.387 0 0 1 0.667,-0.597 q 0.681,-0.459 1.495,-0.459 0.578,0 1.037,0.095 z m 2.934,0.064 v 8.669 h -1.313 v -8.669 z m 6.431,8.471 h -1.574 q -0.654,0 -1.097,0.229 a 1.538,1.538 0 0 0 -0.295,0.199 1.384,1.384 0 0 0 -0.454,0.784 2.101,2.101 0 0 0 -0.044,0.442 1.319,1.319 0 0 0 0.087,0.489 q 0.124,0.315 0.428,0.528 a 1.541,1.541 0 0 0 0.078,0.05 q 0.59,0.363 1.69,0.364 a 6.623,6.623 0 0 0 0.011,0 q 1.653,0 2.448,-0.494 0.795,-0.494 0.795,-1.341 a 1.777,1.777 0 0 0 -0.033,-0.353 q -0.041,-0.203 -0.134,-0.354 a 0.828,0.828 0 0 0 -0.268,-0.27 q -0.435,-0.273 -1.638,-0.273 z m -2.752,-5.695 a 2.563,2.563 0 0 0 0.052,0.537 q 0.112,0.522 0.462,0.839 a 1.697,1.697 0 0 0 0.683,0.371 q 0.26,0.075 0.57,0.092 a 3.381,3.381 0 0 0 0.178,0.004 2.861,2.861 0 0 0 0.749,-0.089 q 1.174,-0.319 1.174,-1.778 a 2.823,2.823 0 0 0 -0.097,-0.773 q -0.337,-1.18 -1.849,-1.18 a 2.755,2.755 0 0 0 -0.562,0.053 q -0.527,0.11 -0.862,0.445 -0.423,0.423 -0.487,1.193 a 3.454,3.454 0 0 0 -0.011,0.286 z m -5.103,-5.126 q 0,-0.451 0.222,-0.66 a 0.759,0.759 0 0 1 0.487,-0.208 1.002,1.002 0 0 1 0.067,-0.002 q 0.316,0 0.545,0.214 0.23,0.213 0.23,0.656 a 1.359,1.359 0 0 1 -0.021,0.249 q -0.026,0.139 -0.083,0.246 a 0.641,0.641 0 0 1 -0.126,0.166 0.766,0.766 0 0 1 -0.545,0.217 q -0.333,0 -0.554,-0.217 a 0.678,0.678 0 0 1 -0.165,-0.272 q -0.057,-0.165 -0.057,-0.389 z"
       id="right_labelLayer"
       style="vector-effect:non-scaling-stroke;fill:#777777;stroke:#777777;stroke-width:1.04499996;stroke-miterlimit:4;stroke-dasharray:none"
       inkscape:connector-curvature="0" />
  </g>
  <ellipse
     style="opacity:1;fill:none;fill-opacity:1;stroke:#ff0000;stroke-width:0.26458332;stroke-linecap:round;stroke-miterlimit:4;stroke-dasharray:none;stroke-opacity:1"
     id="path4546"
     cx="39.791382"
     cy="125.49852"
     rx="22.142399"
     ry="22.142397" />
  <rect
     style="opacity:1;fill:none;fill-opacity:1;stroke:#ff0000;stroke-width:1.04500008;stroke-linecap:round;stroke-miterlimit:4;stroke-dasharray:none;stroke-opacity:1"
     id="rect4563"
     width="13.769036"
     height="6.8845181"
     x="101.7132"
     y="71.950005"
     ry="3.4422591" />
  <circle
     style="opacity:1;fill:none;fill-opacity:1;stroke:#ff0000;stroke-width:0.64974165;stroke-linecap:round;stroke-miterlimit:4;stroke-dasharray:none;stroke-opacity:1"
     id="path4565"
     cx="21.632324"
     cy="77.633667"
     r="3.1751292" />
  <circle
     style="opacity:1;fill:none;fill-opacity:1;stroke:#ff0000;stroke-width:0.64974165;stroke-linecap:round;stroke-miterlimit:4;stroke-dasharray:none;stroke-opacity:1"
     id="path4565-3"
     cx="21.632324"
     cy="64.621323"
     r="3.1751292" />
  <circle
     style="opacity:1;fill:none;fill-opacity:1;stroke:#ff0000;stroke-width:0.31761378;stroke-linecap:round;stroke-miterlimit:4;stroke-dasharray:none;stroke-opacity:1"
     id="path5180"
     cx="21.728106"
     cy="143.11812"
     r="2.3411932" />
  <circle
     style="opacity:1;fill:none;fill-opacity:1;stroke:#ff0000;stroke-width:0.31761378;stroke-linecap:round;stroke-miterlimit:4;stroke-dasharray:none;stroke-opacity:1"
     id="path5180-1"
     cx="57.879097"
     cy="143.11812"
     r="2.3411932" />
  <circle
     style="opacity:1;fill:none;fill-opacity:1;stroke:#ff0000;stroke-width:0.31761378;stroke-linecap:round;stroke-miterlimit:4;stroke-dasharray:none;stroke-opacity:1"
     id="path5180-2"
     cx="21.728106"
     cy="107.12475"
     r="2.3411932" />
  <circle
     style="opacity:1;fill:none;fill-opacity:1;stroke:#ff0000;stroke-width:0.31761378;stroke-linecap:round;stroke-miterlimit:4;stroke-dasharray:none;stroke-opacity:1"
     id="path5180-1-0"
     cx="57.879097"
     cy="107.12475"
     r="2.3411932" />
  <g
     id="g5253"
     transform="translate(0.47110541,0.47110541)">
    <ellipse
       ry="22.142397"
       rx="22.142399"
       cy="125.02741"
       cx="91.497459"
       id="path4546-2"
       style="opacity:1;fill:none;fill-opacity:1;stroke:#ff0000;stroke-width:0.26458332;stroke-linecap:round;stroke-miterlimit:4;stroke-dasharray:none;stroke-opacity:1" />
  </g>
  <circle
     style="opacity:1;fill:none;fill-opacity:1;stroke:#ff0000;stroke-width:0.31761378;stroke-linecap:round;stroke-miterlimit:4;stroke-dasharray:none;stroke-opacity:1"
     id="path5180-28"
     cx="73.905289"
     cy="143.31833"
     r="2.3411932" />
  <circle
     style="opacity:1;fill:none;fill-opacity:1;stroke:#ff0000;stroke-width:0.31761378;stroke-linecap:round;stroke-miterlimit:4;stroke-dasharray:none;stroke-opacity:1"
     id="path5180-1-3"
     cx="110.05627"
     cy="143.31833"
     r="2.3411932" />
  <circle
     style="opacity:1;fill:none;fill-opacity:1;stroke:#ff0000;stroke-width:0.31761378;stroke-linecap:round;stroke-miterlimit:4;stroke-dasharray:none;stroke-opacity:1"
     id="path5180-2-9"
     cx="73.905289"
     cy="107.32497"
     r="2.3411932" />
  <circle
     style="opacity:1;fill:none;fill-opacity:1;stroke:#ff0000;stroke-width:0.31761378;stroke-linecap:round;stroke-miterlimit:4;stroke-dasharray:none;stroke-opacity:1"
     id="path5180-1-0-6"
     cx="110.05627"
     cy="107.32497"
     r="2.3411932" />
</svg>
