<?xml version="1.0" encoding="UTF-8" standalone="no"?>
<!-- Created with Inkscape (http://www.inkscape.org/) -->

<svg
   xmlns:dc="http://purl.org/dc/elements/1.1/"
   xmlns:cc="http://creativecommons.org/ns#"
   xmlns:rdf="http://www.w3.org/1999/02/22-rdf-syntax-ns#"
   xmlns:svg="http://www.w3.org/2000/svg"
   xmlns="http://www.w3.org/2000/svg"
   xmlns:sodipodi="http://sodipodi.sourceforge.net/DTD/sodipodi-0.dtd"
   xmlns:inkscape="http://www.inkscape.org/namespaces/inkscape"
   width="117.045mm"
   height="166.04498mm"
   viewBox="0 0 117.045 166.04498"
   version="1.1"
   id="svg4598"
   inkscape:version="0.92.2 (5c3e80d, 2017-08-06)"
   sodipodi:docname="Clock Box v1 - page2.svg">
  <defs
     id="defs4592" />
  <sodipodi:namedview
     id="base"
     pagecolor="#ffffff"
     bordercolor="#666666"
     borderopacity="1.0"
     inkscape:pageopacity="0.0"
     inkscape:pageshadow="2"
     inkscape:zoom="0.35"
     inkscape:cx="-105.95546"
     inkscape:cy="105.21436"
     inkscape:document-units="mm"
     inkscape:current-layer="layer1"
     showgrid="false"
     fit-margin-top="0"
     fit-margin-left="0"
     fit-margin-right="0"
     fit-margin-bottom="0"
     inkscape:window-width="3840"
     inkscape:window-height="1017"
     inkscape:window-x="-8"
     inkscape:window-y="-8"
     inkscape:window-maximized="1" />
  <metadata
     id="metadata4595">
    <rdf:RDF>
      <cc:Work
         rdf:about="">
        <dc:format>image/svg+xml</dc:format>
        <dc:type
           rdf:resource="http://purl.org/dc/dcmitype/StillImage" />
        <dc:title></dc:title>
      </cc:Work>
    </rdf:RDF>
  </metadata>
  <g
     inkscape:label="Layer 1"
     inkscape:groupmode="layer"
     id="layer1"
     transform="translate(-8.0013095,-10.62631)">
    <path
       d="m 11.52381,98.14881 v 13.125 H 8.5238095 v 9.75 H 11.52381 v 9.75 H 8.5238095 v 9.75 H 11.52381 v 9.75 H 8.5238095 v 9.75 H 11.52381 v 9.74999 3.375 h 11.125 v 3 h 9.75 v -3 h 9.75 v 3 h 9.75 v -3 h 9.75 v 3 h 9.75 v -3 h 9.75 v 3 h 9.75 v -3 h 9.75 v 3 h 9.75 v -3 h 9.75 1.375 v -13.12499 h 3 v -9.75 h -3 v -9.75 h 3 v -9.75 h -3 v -9.75 h 3 v -9.75 h -3 v -9.75 -3.375 h -11.125 v -3 h -9.75 v 3 h -9.75 v -3 h -9.75 v 3 h -9.75 v -3 h -9.75 v 3 h -9.75 v -3 h -9.75 v 3 h -9.75 v -3 h -9.75 v 3 h -9.75 z"
       id="top_outsideCutPath"
       style="font-size:12px;vector-effect:non-scaling-stroke;fill:none;fill-rule:evenodd;stroke:#ff0000;stroke-width:1.04499996;stroke-linecap:round;stroke-miterlimit:4;stroke-dasharray:none"
       inkscape:connector-curvature="0" />
    <path
       d="m 11.52381,14.14881 v 13.125 H 8.5238095 v 9.75 H 11.52381 v 9.749999 H 8.5238095 v 9.750002 H 11.52381 V 66.27381 H 8.5238095 v 9.750002 H 11.52381 v 9.749999 3.375001 h 11.125 v 2.999999 h 9.75 v -2.999999 h 9.75 v 2.999999 h 9.75 v -2.999999 h 9.75 v 2.999999 h 9.75 v -2.999999 h 9.75 v 2.999999 h 9.75 v -2.999999 h 9.75 v 2.999999 h 9.75 v -2.999999 h 9.75 1.375 v -13.125 h 3 V 66.27381 h -3 v -9.749999 h 3 v -9.750002 h -3 V 37.02381 h 3 v -9.75 h -3 v -9.75 -3.375 h -11.125 v -3 h -9.75 v 3 h -9.75 v -3 h -9.75 v 3 h -9.75 v -3 h -9.75 v 3 h -9.75 v -3 h -9.75 v 3 h -9.75 v -3 h -9.75 v 3 h -9.75 z"
       id="bottom_outsideCutPath"
       style="font-size:12px;vector-effect:non-scaling-stroke;fill:none;fill-rule:evenodd;stroke:#ff0000;stroke-width:1.04499996;stroke-linecap:round;stroke-miterlimit:4;stroke-dasharray:none"
       inkscape:connector-curvature="0" />
  </g>
</svg>
